HIERARCHY
ROOT PELVIS
{
    OFFSET 0 0 0
    CHANNELS 6 Xposition Yposition Zposition Xrotation Yrotation Zrotation
    JOINT SPINE_NAVAL
    {
        OFFSET -2.0534851999999972 -15.5394837 -4.181665000000021
        CHANNELS 3 Xrotation Yrotation Zrotation
        JOINT SPINE_CHEST
        {
            OFFSET -0.1256637000000012 -12.880011000000001 -1.5139648999999735
            CHANNELS 3 Xrotation Yrotation Zrotation
            JOINT NECK
            {
                OFFSET 0.6955734000000007 -19.713171299999992 -0.8032470999999987
                CHANNELS 3 Xrotation Yrotation Zrotation
                JOINT HEAD
                {
                    OFFSET -1.3472442999999998 -6.821453900000006 -2.612817300000006
                    CHANNELS 3 Xrotation Yrotation Zrotation
                }
            }
            JOINT CLAVICLE_LEFT
            {
                OFFSET 2.8376296999999995 -16.523620599999997 -0.8934326000000056
                CHANNELS 3 Xrotation Yrotation Zrotation
                JOINT SHOULDER_LEFT
                {
                    OFFSET 10.252911399999999 3.060675100000003 -7.381201199999987
                    CHANNELS 3 Xrotation Yrotation Zrotation
                    JOINT ELBOW_LEFT
                    {
                        OFFSET 3.705188000000004 24.848709099999997 -0.4947998000000098
                        CHANNELS 3 Xrotation Yrotation Zrotation
                        JOINT WRIST_LEFT
                        {
                            OFFSET -1.6777131000000054 20.755538899999998 -3.3462890000000245
                            CHANNELS 3 Xrotation Yrotation Zrotation
                            JOINT HAND_LEFT
                            {
                                OFFSET 2.300473100000005 8.163669200000001 2.175024400000029
                                CHANNELS 3 Xrotation Yrotation Zrotation
                                JOINT HANDTIP_LEFT
                                {
                                    OFFSET -0.051223800000002484 7.1441635 6.745263599999999
                                    CHANNELS 3 Xrotation Yrotation Zrotation
                                }
                            }
                            JOINT THUMB_LEFT
                            {
                                OFFSET -2.834121699999997 11.9597349 4.810522400000036
                                CHANNELS 3 Xrotation Yrotation Zrotation
                            }
                        }
                    }
                }
            }
            JOINT CLAVICLE_RIGHT
            {
                OFFSET -1.0794707999999986 -16.622052000000004 1.603588899999977
                CHANNELS 3 Xrotation Yrotation Zrotation
                JOINT SHOULDER_RIGHT
                {
                    OFFSET -10.558650200000002 3.7694825000000036 4.160668900000019
                    CHANNELS 3 Xrotation Yrotation Zrotation
                    JOINT ELBOW_RIGHT
                    {
                        OFFSET -3.171775099999999 24.1309143 7.949121100000002
                        CHANNELS 3 Xrotation Yrotation Zrotation
                        JOINT WRIST_RIGHT
                        {
                            OFFSET -3.3093597000000003 20.921231799999997 -2.7364501999999904
                            CHANNELS 3 Xrotation Yrotation Zrotation
                            JOINT HAND_RIGHT
                            {
                                OFFSET -0.3383876999999991 8.972045099999999 2.876147499999979
                                CHANNELS 3 Xrotation Yrotation Zrotation
                                JOINT HANDTIP_RIGHT
                                {
                                    OFFSET 7.4710163 5.7339547 -2.140478499999972
                                    CHANNELS 3 Xrotation Yrotation Zrotation
                                }
                            }
                            JOINT THUMB_RIGHT
                            {
                                OFFSET 3.8033332 12.8209585 -1.3018309999999929
                                CHANNELS 3 Xrotation Yrotation Zrotation
                            }
                        }
                    }
                }
            }
        }
    }
    JOINT HIP_LEFT
    {
        OFFSET 7.179837000000004 0.16621849999999938 -4.143481400000018
        CHANNELS 3 Xrotation Yrotation Zrotation
        JOINT KNEE_LEFT
        {
            OFFSET 1.8186462000000005 36.3250458 1.54128410000003
            CHANNELS 3 Xrotation Yrotation Zrotation
            JOINT ANKLE_LEFT
            {
                OFFSET 5.139150999999998 31.740254200000003 13.285449299999982
                CHANNELS 3 Xrotation Yrotation Zrotation
                JOINT FOOT_LEFT
                {
                    OFFSET -1.627920499999999 12.280194099999994 -11.693652399999973
                    CHANNELS 3 Xrotation Yrotation Zrotation
                }
            }
        }
    }
    JOINT HIP_RIGHT
    {
        OFFSET -6.474380499999998 -0.14957740000000114 3.736352500000021
        CHANNELS 3 Xrotation Yrotation Zrotation
        JOINT KNEE_RIGHT
        {
            OFFSET 2.1862212999999997 35.5006073 7.567529299999978
            CHANNELS 3 Xrotation Yrotation Zrotation
            JOINT ANKLE_RIGHT
            {
                OFFSET 6.129772899999997 33.16903229999999 9.909472700000014
                CHANNELS 3 Xrotation Yrotation Zrotation
                JOINT FOOT_RIGHT
                {
                    OFFSET -9.378500299999999 10.563830600000006 -6.789648400000033
                    CHANNELS 3 Xrotation Yrotation Zrotation
                }
            }
        }
    }
}
MOTION
Frames: 5
Frame Time: 0.01
0 0 0 19.815641205117288 3.858142241474348 -14.318192352863152 5.688111211581027 -0.11108904473508577 -2.8414930213348777 7.3480859237615785 -1.9836525488101853 -0.5944537314708546 -0.6281556349938076 1.8444853289027743 -0.8444740538588925 2.912035514208124 5.587954235216366 9.13359104621477 -7.366726757726781 5.517194119254731 -4.995850240549903 -12.861152491026415 -1.1418184278864645 11.447075332018056 -17.32353089448974 -11.103684786225848 36.963135838502325 -65.58111137881984 -44.62783912687458 3.695537021369177 0 0 0 0 0 0 0.7032534946207785 -2.407197503961727 2.7723657327597766 -15.856585989091673 2.273643592625415 -1.0017941805343713 -13.601222277210638 1.8346408452595577 1.9094372454157502 -40.07508496241272 8.55139928314556 11.085232400555537 39.94007437195489 -15.702681465097365 40.778170006804665 0 0 0 0 0 0 -41.55741463962036 12.642220598722284 22.852830649225172 21.139440831807427 4.075492403941551 -15.944506025423456 -11.872236335046573 6.214774934546725 6.791247085007495 0 0 0 -45.581449237528595 8.77981096527836 33.38110832886939 29.9054416858315 7.044450719353935 -21.7161981553004 -13.236276133684186 -2.3505576235776124 11.364014718508546 0 0 0 0 0 0 
0 0 0 19.493809258261162 3.715258954494689 -14.00698674190395 5.7394445689855615 -0.08788815946926072 -2.869497955197798 7.205080283488954 -1.925473413510372 -0.5335044732347459 -0.6461166127689805 1.8336174942856165 -0.8550342154362747 2.585432985057511 5.959909390274333 8.588781175459252 -7.473568561382284 5.0831465202961255 -4.31058294208206 -12.233775822531845 -1.1297013815545751 11.07619754434256 -15.439096951461076 -11.575352657134921 35.62434706507928 -65.91964298640207 -43.278092501594784 3.1739327728030617 0 0 0 0 0 0 0.7509534917448093 -2.4673087064099 2.8970721052042423 -16.31581022806606 2.16408453117147 -1.0374707945244845 -12.357561309389599 1.6091430257388777 1.3301614219722677 -39.67191279756412 8.441087223865587 10.85482719955521 39.19162832569949 -16.5118202827723 40.909001285041036 0 0 0 0 0 0 -40.94605869761483 12.203269236652826 22.283507979458207 20.80635067806703 3.8395704692156243 -15.438253620008192 -12.360750138722064 6.177623144476442 6.774089413888226 0 0 0 -44.88843333705287 8.400040077963185 32.736781015174614 29.496460010599364 6.822775965693563 -21.33841441527733 -13.724071946167173 -2.6246638596936056 11.447529547176934 0 0 0 0 0 0 
0 0 0 19.17305859270114 3.5749899302340293 -13.696957349864185 5.7903629990642616 -0.06462197974612857 -2.8973749256783825 7.062327357298132 -1.8683119795712748 -0.4741752992738227 -0.663647328638129 1.8225983073432015 -0.8655722644391468 2.2546127577781587 6.322923294032809 8.049088739811028 -7.56976397027096 4.670704713848654 -3.623524517605017 -11.624292603264989 -1.1136882790362934 10.691340444303943 -13.5519787562864 -12.004382585569903 34.27186031850037 -66.26450253001991 -41.902028953797455 2.74453227683295 0 0 0 0 0 0 0.7978424491023706 -2.5280827890007025 3.0221056938662043 -16.771421020997924 2.0493318249531653 -1.0743947727363294 -11.117533240939096 1.3984380918022032 0.7564855040787961 -39.27754251345449 8.327224815296727 10.614313092686084 38.41975351123132 -17.30134666036714 41.05341874202779 0 0 0 0 0 0 -40.334349758654426 11.773697035413688 21.713751939659502 20.470023293675155 3.609105325501429 -14.935951668189702 -12.843307890438568 6.1416657577532785 6.7573129013534885 0 0 0 -44.19598910723855 8.02995253802096 32.092327757938314 29.08902568263327 6.60435192356298 -20.96133337353238 -14.209213851745702 -2.8973899231861013 11.532566470377176 0 0 0 0 0 0 
0 0 0 18.8534378808552 3.4373239030731875 -13.388148386019393 5.840852573401628 -0.04129994781371117 -2.925113546814928 6.919892430524298 -1.8121785888799673 -0.4164598460201935 -0.6807548233015969 1.8114453630771135 -0.8760873217234696 1.9198896500588838 6.677094001535841 7.514623732712526 -7.655237161134858 4.279806943678243 -2.93575146942938 -11.033073609619793 -1.0940137702861454 10.293732740227407 -11.666554256902197 -12.390439397355854 32.9100556548318 -66.61008040128331 -40.50836185603618 2.405197500845068 0 0 0 0 0 0 0.8439415596629702 -2.589474709724885 3.147447952774214 -17.223008990544255 1.929509818152464 -1.112530591679463 -9.8819108620862 1.2021337477511163 0.18886718242127498 -38.89223291619864 8.210284615471021 10.36316337431417 37.62508650677069 -18.07022955614343 41.21105693428545 0 0 0 0 0 0 -39.72243439345992 11.353496687217133 21.14370869698894 20.130650794759173 3.384068387525955 -14.437629310093916 -13.319949619508952 6.1069098289133175 6.740879894542353 0 0 0 -43.50429069002738 7.669558517706253 31.447935862432132 28.683211132219235 6.389199096088346 -20.585044863897654 -14.69163717045696 -3.1686684131134757 11.619098709805174 0 0 0 0 0 0 
0 0 0 18.53499448363129 3.3022482362991896 -13.08060281404997 5.89090004751563 -0.017931364852125205 -2.952703832016966 6.777838909823249 -1.7570823510171656 -0.36035026475114545 -0.697446545493188 1.8001754616303194 -0.8865787272280924 1.5815747297680471 7.022528721385212 6.985490696258665 -7.729919536180154 3.9103257540727974 -2.2483186342332115 -10.460433932542196 -1.070936083814329 9.884603168594552 -9.787141815323762 -12.733637389790514 31.543301366060568 -66.95106761638118 -39.105728491848275 2.1530358802524967 0 0 0 0 0 0 0.8892704409528465 -2.6514400336190174 3.2730795894556564 -17.670180749730978 1.8047480771954572 -1.1518420881609055 -8.651442723904426 1.0198166946927056 -0.3722595143014861 -38.51618756940729 8.09076828876644 10.100896326758651 36.80839869225909 -18.817489229012768 41.38143369082534 0 0 0 0 0 0 -39.11045882713681 10.942654437149232 20.573523884233573 19.78842218420148 3.16442701964474 -13.9433146923893 -13.790717105471694 6.0733599218581045 6.724752866855018 0 0 0 -42.813511858082016 7.3188589491180025 30.80379195431656 28.279087188496835 6.177334449849069 -20.209636812193864 -15.171280217422469 -3.43843400505878 11.707097995827953 0 0 0 0 0 0 
